<svg xmlns="http://www.w3.org/2000/svg" viewBox="0 0 70 70" id="1169207659" class="svg u_1169207659" data-icon-name="wp-driving_directions_thin"> <g> <path d="M15,25.5c-2.8,0-5-2.2-5-5s2.2-5,5-5c2.8,0,5,2.2,5,5S17.8,25.5,15,25.5z M15,17.5c-1.7,0-3,1.3-3,3s1.3,3,3,3
		c1.7,0,3-1.3,3-3S16.7,17.5,15,17.5z"></path> 
 <circle cx="29.5" cy="53" r="1.5"></circle> 
 <circle cx="22.5" cy="53" r="1.5"></circle> 
 <circle cx="16.5" cy="51" r="1.5"></circle> 
 <circle cx="14.5" cy="45" r="1.5"></circle> 
 <circle cx="14.5" cy="38" r="1.5"></circle> 
 <circle cx="14.5" cy="31" r="1.5"></circle> 
 <circle cx="36.5" cy="53" r="1.5"></circle> 
 <circle cx="43.5" cy="53" r="1.5"></circle> 
 <path d="M50,54.5c-0.4,0-1.2-0.2-1.5-1.2l0-0.1l-0.6-2c-1.1-3.2-3.2-7.1-5.5-10.2c-1.6-2.2-2.4-4.4-2.4-6.5c0-5.5,4.5-9.9,10-9.9
		c5.5,0,10,4.5,10,9.9c0,2.2-0.8,4.4-2.4,6.5c-2.3,3.1-4.4,7.1-5.5,10.3l-0.6,2C51.2,54.3,50.4,54.5,50,54.5z M50,26.5
		c-4.4,0-8,3.6-8,7.9c0,1.7,0.7,3.5,2,5.3c2.4,3.3,4.6,7.4,5.8,10.8l0.2,0.6l0.1-0.5c1.2-3.5,3.4-7.6,5.8-10.9c1.4-1.9,2-3.6,2-5.3
		C58,30.1,54.4,26.5,50,26.5z"></path> 
 <path d="M50,38.5c-2.2,0-4-1.8-4-4s1.8-4,4-4c2.2,0,4,1.8,4,4S52.2,38.5,50,38.5z M50,32.5c-1.1,0-2,0.9-2,2s0.9,2,2,2
		c1.1,0,2-0.9,2-2S51.1,32.5,50,32.5z"></path> 
</g> 
</svg>