<svg xmlns="http://www.w3.org/2000/svg" viewBox="0 0 100 100" id="1227372707" class="svg u_1227372707" data-icon-name="business_profile_glasses"> <path d="M49.37,88h0a.85.85,0,0,0,.18.12.92.92,0,0,0,.11.07.88.88,0,0,0,.3.06H50a.88.88,0,0,0,.3-.06.92.92,0,0,0,.11-.07.85.85,0,0,0,.18-.12h0l6.74-6.8L53.1,60l1.83-1.79A.88.88,0,0,0,53.7,57L50,60.6,46.3,57a.88.88,0,0,0-1.23,1.26L46.9,60,42.63,81.24Zm.63-25,1.6-1.56,3.86,19.16L50,86.17l-5.45-5.5L48.4,61.51Z"></path> 
 <path d="M36.4,78.17a.88.88,0,0,0,.18-1.75l-14.35-3,2.08-10.39a10.17,10.17,0,0,1,3.5-5.84,8.26,8.26,0,0,1,3.44-1.8l9.57-2.78a2.94,2.94,0,0,0,1.94-1.79L50,57.33l7.25-6.49a2.94,2.94,0,0,0,1.94,1.79l9.66,2.8a8.15,8.15,0,0,1,3.35,1.77,10.2,10.2,0,0,1,3.5,5.85l2.08,10.39L61.63,76.79a.88.88,0,0,0,.18,1.75l.18,0,17.85-3.7L77.43,62.72a12,12,0,0,0-4.1-6.86,9.82,9.82,0,0,0-4-2.12l-9.61-2.79a1.21,1.21,0,0,1-.86-1l-.39-3.32a17.35,17.35,0,0,0,5.4-8.47C65.7,37.6,67,35.48,67,32.9a5.43,5.43,0,0,0-2.64-5c0-2-.4-8.13-4.34-12.28C57.59,13,54.21,11.7,50,11.7a13.34,13.34,0,0,0-10.07,3.91c-4,4.17-4.39,10.35-4.41,12.33a5.5,5.5,0,0,0-2.56,5c0,2.57,1.34,4.69,3.2,5.23a17.42,17.42,0,0,0,5.41,8.48l-.38,3.32a1.21,1.21,0,0,1-.86,1l-9.52,2.76a9.92,9.92,0,0,0-4.13,2.15,11.94,11.94,0,0,0-4.11,6.86L20.16,74.82l16.07,3.33Zm24.46-50a1.79,1.79,0,0,0-1.66-1.13H53.45a1.79,1.79,0,0,0-1.79,1.78H48.33a1.79,1.79,0,0,0-1.79-1.78H40.8a1.79,1.79,0,0,0-1.66,1.14l-1.83-.82a21.23,21.23,0,0,1,1-5.4,4.25,4.25,0,0,1,2.31-1.95c1.41-.51,3.2-.28,5.32.69.56.26,1.11.52,1.65.79a20.25,20.25,0,0,0,6.73,2.31,19.19,19.19,0,0,0,2.1.12A14.08,14.08,0,0,0,62,22.87a21.53,21.53,0,0,1,.67,4.54Zm-7.41.64,5.77,0v3a0,0,0,0,1,0,0l-5.77,0Zm-12.66,0,5.77,0v3a0,0,0,0,1,0,0l-5.77,0ZM50,13.46a11.6,11.6,0,0,1,8.78,3.36,12.75,12.75,0,0,1,2.64,4.36,13.21,13.21,0,0,1-6.95.91,18.6,18.6,0,0,1-6.15-2.15c-.56-.27-1.12-.54-1.69-.81C44.06,18,41.82,17.72,40,18.4h0a11.29,11.29,0,0,1,1.26-1.59A11.65,11.65,0,0,1,50,13.46ZM37.72,37.14l-.16-.6-.62-.06c-1.24-.11-2.22-1.69-2.22-3.59,0-1.73.81-3.22,1.92-3.53l.07,0,.15-.08.11-.06,2,.91v1.81A1.79,1.79,0,0,0,40.8,33.7h5.75a1.79,1.79,0,0,0,1.79-1.79V30.63h3.33v1.27a1.79,1.79,0,0,0,1.79,1.79H59.2A1.79,1.79,0,0,0,61,31.91V30.1l2-.9.09,0,.16.07.08,0c1.15.29,2,1.78,2,3.55s-1,3.48-2.23,3.59l-.62.05-.16.6A15.56,15.56,0,0,1,57,45.53l-.39.31.34,3L50,55l-6.9-6.18.34-2.95L43,45.53A15.63,15.63,0,0,1,37.72,37.14Z"></path> 
 <path d="M62.68,68.86l8.87-1.67a.88.88,0,0,0-.33-1.73l-8.87,1.67a.88.88,0,0,0,.16,1.75Z"></path> 
</svg>