<?xml version="1.0" encoding="utf-8"?>
<!-- Generator: Adobe Illustrator 25.2.1, SVG Export Plug-In . SVG Version: 6.00 Build 0)  -->
<svg version="1.1" id="Layer_1" xmlns="http://www.w3.org/2000/svg" xmlns:xlink="http://www.w3.org/1999/xlink" x="0px" y="0px"
	 viewBox="0 0 751.67 433.01" style="enable-background:new 0 0 751.67 433.01;" xml:space="preserve">
<style type="text/css">
	.st0{fill:#3FA9F5;}
	.st1{fill:#7AC943;}
	.st2{fill:#4D4D4D;}
</style>
<path class="st0" d="M746.6,230.71c-1.68,2.07-41.99,51.16-107.32,100.72c-35.77,27.13-72.23,49.19-108.49,65.65
	c18.98-16.28,35.48-35.56,48.66-57.25c6.31-10.38,11.84-21.28,16.46-32.47c48.65-34.5,85.22-71.28,103.28-90.87
	c-16.14-17.53-46.7-48.8-87.61-79.73c-4.8-3.63-9.75-7.32-14.75-11.02v-0.01l-0.77-0.31c-10.34-7.3-21.67-14.69-33.54-21.87
	c-51.61-31.21-116.85-58.58-186.61-58.58c-1.34,0-2.71,0.03-4.05,0.05c-0.14,0-0.3,0-0.43,0.01
	c-92.55,2.35-167.11,78.37-167.11,171.47c0,50.3,21.75,95.62,56.36,127.02c-20.08-8.3-40.45-18.68-61.04-31.13
	c-8.99-5.43-18.02-11.3-27.47-17.85c-9.32-24.24-14.43-50.55-14.43-78.04c0-27.54,5.13-53.91,14.49-78.19
	c1.06-2.78,2.19-5.52,3.37-8.24c0.57-1.32,1.15-2.63,1.75-3.93c0.15-0.32,0.3-0.65,0.45-0.97c1.02-2.21,2.07-4.4,3.18-6.56
	c0.42-0.84,0.84-1.67,1.27-2.51c2.22-4.26,4.58-8.45,7.07-12.54c7.18-11.82,15.45-22.9,24.67-33.11c1.18-1.3,2.38-2.59,3.59-3.87
	c1.3-1.38,2.63-2.75,3.99-4.1c0.86-0.86,1.74-1.71,2.62-2.57c3.12-3.03,6.33-5.97,9.63-8.79c27.07-23.29,59.91-40.05,96.04-47.83
	C345.32,1.1,360.66,0,375.83,0c15.17,0,30.52,1.1,45.99,3.29c33.05,4.68,66.67,14.32,100.44,28.85
	c39.07,16.81,78.44,40.18,117.02,69.44c65.33,49.56,105.64,98.65,107.32,100.71C753.35,210.56,753.35,222.44,746.6,230.71"/>
<path class="st1" d="M593.94,216.5c0,27.45-5.1,53.73-14.4,77.93c-4.69,12.24-10.46,23.95-17.18,35.01
	c-30.64,50.41-81.12,87.46-140.52,100.27c-0.24,0.03-0.47,0.07-0.71,0.1c-15.24,2.12-30.35,3.2-45.3,3.2c-15.18,0-30.53-1.11-46-3.3
	c-33.05-4.68-66.66-14.32-100.42-28.85c-39.08-16.81-78.45-40.17-117.02-69.43C47.06,281.87,6.74,232.78,5.06,230.71
	c-6.75-8.27-6.75-20.15,0-28.42c1.68-2.06,42-51.15,107.33-100.71c35.74-27.11,72.17-49.17,108.41-65.62
	c-18.96,16.26-35.37,35.54-48.55,57.21c-6.33,10.42-11.42,21.27-16.42,32.46v0.01c-48,34.49-85.25,71.28-103.33,90.87
	c16.15,17.53,47.03,48.81,87.94,79.73c4.89,3.69,10,7.45,15.35,11.23c0.01,0.01,0.01,0.01,0.02,0.02c10.36,7.33,21.57,15,33.5,22.2
	c51.56,31.17,116.62,58.82,186.28,58.82h0.24c1.5,0,3-0.43,4.49-0.47c6.3-0.15,12.52-0.61,18.63-1.6c0.05,0,0.1,0.07,0.15,0.07h0.01
	c83.62-11,148.26-83.3,148.26-169.98c0-50.2-21.68-95.03-56.17-126.42c-0.01,0-0.01,0.4-0.02,0.4h-0.01c-0.31-1-0.63-0.77-0.95-1.06
	c0.32,0.13,0.63,0.17,0.95,0.3c0.01,0,0.02-0.03,0.03-0.03c20.02,8.28,40.3,18.6,60.8,30.98c9.18,5.55,18.37,11.49,27.48,17.79
	c0.01,0.03,0.02,0.04,0.03,0.07C588.83,162.79,593.94,189.03,593.94,216.5"/>
<path class="st2" d="M403,201.82l-17.16-63.98c-2.55-0.24-5.14-0.37-7.76-0.37c-44.56,0-80.69,36.12-80.69,80.69
	c0,44.56,36.12,80.69,80.69,80.69c44.56,0,80.69-36.12,80.69-80.69c0-20.09-7.35-38.47-19.5-52.6L403,201.82"/>
</svg>
