<svg xmlns="http://www.w3.org/2000/svg" viewBox="0 0 751.66 433.01"><defs><style>.cls-1{fill:#fff;}</style></defs><g id="Layer_2" data-name="Layer 2"><g id="Layer_1-2" data-name="Layer 1"><path class="cls-1" d="M746.6,230.71c-1.68,2.07-42,51.16-107.32,100.72-35.77,27.13-72.23,49.19-108.49,65.65a239,239,0,0,0,48.66-57.25,236.12,236.12,0,0,0,16.46-32.47,679.32,679.32,0,0,0,103.28-90.87,672.41,672.41,0,0,0-87.61-79.73c-4.8-3.63-9.75-7.32-14.75-11h0l-.77-.31c-10.34-7.3-21.67-14.69-33.54-21.87C510.91,72.34,445.67,45,375.91,45c-1.34,0-2.71,0-4.05.05h-.43C278.88,47.38,204.32,123.4,204.32,216.5a171.11,171.11,0,0,0,56.36,127,452,452,0,0,1-61-31.13c-9-5.43-18-11.3-27.47-17.85a218.22,218.22,0,0,1,.06-156.23c1.06-2.78,2.19-5.52,3.37-8.24.57-1.32,1.15-2.63,1.75-3.93l.45-1c1-2.21,2.07-4.4,3.18-6.56l1.27-2.51q3.33-6.39,7.07-12.54A219.25,219.25,0,0,1,214,70.45q1.77-2,3.59-3.87t4-4.1c.86-.86,1.74-1.71,2.62-2.57q4.68-4.54,9.63-8.79a217.44,217.44,0,0,1,96-47.83,322.95,322.95,0,0,1,92,0C454.87,8,488.49,17.61,522.26,32.14c39.07,16.81,78.44,40.18,117,69.44,65.33,49.56,105.64,98.65,107.32,100.71a22.47,22.47,0,0,1,0,28.42"/><path class="cls-1" d="M593.94,216.5a218.32,218.32,0,0,1-172.1,213.21l-.71.1a322.25,322.25,0,0,1-91.3-.1c-33.05-4.68-66.66-14.32-100.42-28.85-39.08-16.81-78.45-40.17-117-69.43C47.06,281.87,6.74,232.78,5.06,230.71a22.47,22.47,0,0,1,0-28.42c1.68-2.06,42-51.15,107.33-100.71C148.13,74.47,184.56,52.41,220.8,36a238.81,238.81,0,0,0-48.55,57.21c-6.33,10.42-11.42,21.27-16.42,32.46h0c-48,34.49-85.25,71.28-103.33,90.87a680.33,680.33,0,0,0,87.94,79.73c4.89,3.69,10,7.45,15.35,11.23l0,0c10.36,7.33,21.57,15,33.5,22.2,51.56,31.17,116.62,58.82,186.28,58.82h.24c1.5,0,3-.43,4.49-.47a136.76,136.76,0,0,0,18.63-1.6c.05,0,.1.07.15.07h0c83.62-11,148.26-83.3,148.26-170,0-50.2-21.68-95-56.17-126.42,0,0,0,.4,0,.4h0c-.31-1-.63-.77-.95-1.06.32.13.63.17.95.3,0,0,0,0,0,0a452.19,452.19,0,0,1,60.8,31c9.18,5.55,18.37,11.49,27.48,17.79l0,.07a216.5,216.5,0,0,1,14.43,77.94"/><path class="cls-1" d="M403,201.82l-17.16-64c-2.55-.24-5.14-.37-7.76-.37a80.69,80.69,0,1,0,61.19,28.09L403,201.82"/></g></g></svg>